<?xml version="1.0" encoding="utf-8"?>
<!-- Generator: Adobe Illustrator 21.1.0, SVG Export Plug-In . SVG Version: 6.00 Build 0)  -->
<svg version="1.1" id="Layer_1" xmlns="http://www.w3.org/2000/svg" xmlns:xlink="http://www.w3.org/1999/xlink" x="0px" y="0px"
	 viewBox="0 0 2000 320" style="enable-background:new 0 0 2000 320;" xml:space="preserve">
<style type="text/css">
	.st0{fill:#FFFFFF;}
</style>
<g>
	<rect x="101.8" y="68.4" class="st0" width="285.2" height="179.3"/>
	<path d="M385.4,70v176.1H103.4V70H385.4 M388.6,66.8H100.2v182.5h288.4V66.8L388.6,66.8z"/>
</g>
<polygon points="303.6,247.7 247.7,320 190.5,247.7 190.5,0 303.6,0 "/>
<path d="M158.3,102.5c0.5,0,0.9,0.1,1.2,0.4c0.3,0.3,0.5,0.7,0.5,1.2v2.8c0,1.4-0.4,2.5-1.1,3.4s-1.8,1.3-3,1.3h-5v101.5
	c0,0.8-0.3,1.5-0.9,2.1c-0.6,0.6-1.3,0.9-2.1,0.9h-5c-0.8,0-1.5-0.3-2.1-0.9c-0.6-0.6-0.9-1.3-0.9-2.1V111.6h-5
	c-1.2,0-2.2-0.4-3-1.3s-1.1-2-1.1-3.4v-2.8c0-0.5,0.2-0.9,0.5-1.2c0.3-0.3,0.7-0.4,1.2-0.4H158.3z"/>
<path class="st0" d="M254.3,119.1c0.4-3.7,0.8-6.7,1.4-8.9c0.5-2.2,1.1-3.9,1.8-5c0.7-1.1,1.4-1.9,2.1-2.2c0.8-0.3,1.5-0.5,2.3-0.5
	h6.2c0.5,0,0.9,0.2,1.2,0.5c0.3,0.3,0.4,0.7,0.4,1.2v110.1c0,0.5-0.1,0.9-0.4,1.2c-0.3,0.3-0.7,0.5-1.2,0.5h-4.5
	c-1.6,0-2.8-0.4-3.6-1.3c-0.8-0.9-1.2-2-1.1-3.4l2.4-79.5l-8.4,80.2c-0.1,1.1-0.7,2.1-1.9,2.9c-1.1,0.8-2.4,1.2-3.7,1.2H247
	c-1.4,0-2.6-0.4-3.7-1.2c-1.1-0.8-1.8-1.7-1.9-2.9l-8.4-80.4l2.4,79.6c0.1,1.4-0.3,2.6-1.1,3.4c-0.8,0.9-2,1.3-3.6,1.3h-4.5
	c-0.5,0-0.9-0.2-1.2-0.5c-0.3-0.3-0.4-0.7-0.4-1.2V104.2c0-0.5,0.1-0.9,0.4-1.2c0.3-0.3,0.7-0.5,1.2-0.5h5.5c0.8,0,1.6,0.1,2.4,0.4
	c0.8,0.3,1.6,1,2.4,2.2c0.8,1.1,1.4,2.8,2.1,5c0.6,2.2,1.1,5.2,1.5,9l7.1,68.6L254.3,119.1z"/>
<path d="M342.7,102.5c2.3,0,4.4,0.3,6.3,1c1.9,0.6,3.5,1.6,4.9,2.8c1.4,1.2,2.4,2.7,3.1,4.4c0.7,1.7,1.1,3.7,1.1,5.8v32.4
	c0,2.4-0.5,4.3-1.4,5.8c-0.9,1.5-2.3,2.7-3.9,3.7c1.7,0.9,3,2.1,3.9,3.6c0.9,1.5,1.4,3.4,1.4,5.7v34.5c0,4.3-1.4,7.7-4.2,10.2
	c-2.8,2.5-6.6,3.7-11.4,3.7h-13.9c-0.5,0-0.9-0.2-1.2-0.5c-0.3-0.3-0.4-0.7-0.4-1.2V104.2c0-0.5,0.1-0.9,0.4-1.2
	c0.3-0.3,0.7-0.5,1.2-0.5H342.7z M347.3,116.5c0-1.5-0.4-2.6-1.1-3.5s-1.9-1.3-3.6-1.3h-4.7v42.1h4.7c1.6,0,2.8-0.5,3.6-1.4
	c0.8-0.9,1.1-2.1,1.1-3.5V116.5z M347.3,167.7c0-1.4-0.4-2.6-1.1-3.5c-0.8-0.9-1.9-1.4-3.5-1.4h-4.8V207h4.7c1.6,0,2.8-0.4,3.6-1.3
	c0.8-0.9,1.1-2.1,1.1-3.5V167.7z"/>
</svg>
